<?xml version="1.0" encoding="utf-8"?>
<!-- Generator: Adobe Illustrator 26.4.1, SVG Export Plug-In . SVG Version: 6.00 Build 0)  -->
<svg version="1.1" id="图层_1" xmlns="http://www.w3.org/2000/svg" xmlns:xlink="http://www.w3.org/1999/xlink" x="0px" y="0px"
	 viewBox="0 0 200 200" style="enable-background:new 0 0 200 200;" xml:space="preserve">
<style type="text/css">
	.st0{fill:none;}
	.st1{fill:#FFFFFF;}
</style>
<path class="st0" d="M50,0h100c33.3,0,50,16.7,50,50v100c0,33.3-16.7,50-50,50H50c-33.3,0-50-16.7-50-50V50C0,16.7,16.7,0,50,0z"/>
<path class="st1" d="M52,162.5c-3.5,0-6.3-2.8-6.3-6.3v-0.1v-32.7c-0.5-3.5,1.9-6.7,5.4-7.2s6.7,1.9,7.2,5.4c0.1,0.6,0.1,1.2,0,1.8
	v32.7C58.4,159.6,55.6,162.5,52,162.5C52.1,162.5,52.1,162.5,52,162.5z M83.5,162.5c-3.5,0-6.3-2.8-6.3-6.3v-0.1v-51.8
	c0.4-3.5,3.6-6,7.1-5.6c2.9,0.3,5.2,2.7,5.6,5.6V156c0.1,3.5-2.7,6.4-6.2,6.5C83.6,162.5,83.6,162.5,83.5,162.5L83.5,162.5z
	 M115,162.5c-3.5,0-6.3-2.8-6.3-6.3v-0.1v-22.7c0.4-3.5,3.6-6,7.1-5.6c2.9,0.3,5.2,2.7,5.6,5.6v22.7
	C121.4,159.6,118.6,162.5,115,162.5C115.1,162.5,115,162.5,115,162.5L115,162.5L115,162.5z M146.5,162.5c-3.5,0-6.3-2.8-6.3-6.3
	v-0.1v-41.9c-0.5-3.5,2-6.7,5.5-7.2s6.7,2,7.2,5.5c0.1,0.6,0.1,1.1,0,1.7v42.4C152.6,159.9,149.9,162.5,146.5,162.5L146.5,162.5z
	 M43.8,99.1c-2,0-3.9-0.9-5.1-2.5c-2-2.9-1.3-6.9,1.6-8.9l45.5-35.1c2.3-1.8,5.5-1.8,7.8,0l20.9,17.1l33.8-28.2
	c2.8-2.1,6.8-1.5,8.9,1.2c1.9,2.6,1.6,6.2-0.7,8.4l-37.6,31.7c-2.3,2-5.7,2-8.1,0L89.9,65.6L48.1,97.8
	C46.8,98.7,45.3,99.2,43.8,99.1L43.8,99.1z"/>
<path class="st1" d="M152.4,74.1c-3.5,0-6.3-2.8-6.4-6.3V50.2h-17.8c-3.5-0.4-6-3.6-5.5-7.1c0.4-2.9,2.6-5.2,5.5-5.5h24.2
	c3.5,0,6.3,2.8,6.4,6.3v24C158.7,71.3,155.9,74.1,152.4,74.1L152.4,74.1L152.4,74.1z"/>
</svg>
